HIERARCHY
ROOT hip
{
	OFFSET 0.000000 0.000000 0.000000 
	CHANNELS 6 Xposition Yposition Zposition Xrotation Zrotation Yrotation
	JOINT abdomen
	{
		OFFSET 0.000000 3.402643 0.000000 
		CHANNELS 3 Xrotation Zrotation Yrotation
		JOINT chest
		{
			OFFSET 0.000000 8.438565 -0.680529 
			CHANNELS 3 Xrotation Zrotation Yrotation
			JOINT neck
			{
				OFFSET 0.000000 10.207942 -0.272212 
				CHANNELS 3 Xrotation Zrotation Yrotation
				JOINT head
				{
					OFFSET 0.000000 3.130431 0.000000 
					CHANNELS 3 Xrotation Zrotation Yrotation
					End Site
					{
						OFFSET 0.000000 3.130435 0.000000 
					}
				}
			}
			JOINT lCollar
			{
				OFFSET 3.470700 6.669187 -0.816635 
				CHANNELS 3 Yrotation Zrotation Xrotation
				JOINT lShldr
				{
					OFFSET 3.198488 0.000000 0.000000 
					CHANNELS 3 Zrotation Yrotation Xrotation
					JOINT lForeArm
					{
						OFFSET 10.139888 0.000000 0.000000 
						CHANNELS 3 Yrotation Zrotation Xrotation
						JOINT lHand
						{
							OFFSET 8.370511 0.000000 0.000000 
							CHANNELS 3 Zrotation Yrotation Xrotation
							End Site
							{
								OFFSET 4.083176 0.000000 0.000000 
							}
						}
					}
				}
			}
			JOINT rCollar
			{
				OFFSET -3.470700 6.669187 -0.816635 
				CHANNELS 3 Yrotation Zrotation Xrotation
				JOINT rShldr
				{
					OFFSET -3.198488 0.000000 0.000000 
					CHANNELS 3 Zrotation Yrotation Xrotation
					JOINT rForeArm
					{
						OFFSET -10.139888 0.000000 0.000000 
						CHANNELS 3 Yrotation Zrotation Xrotation
						JOINT rHand
						{
							OFFSET -8.370511 0.000000 0.000000 
							CHANNELS 3 Zrotation Yrotation Xrotation
							End Site
							{
								OFFSET -4.083176 0.000000 0.000000 
							}
						}
					}
				}
			}
		}
	}
	JOINT lThigh
	{
		OFFSET 5.308129 -1.633274 1.361059 
		CHANNELS 3 Xrotation Zrotation Yrotation
		JOINT lShin
		{
			OFFSET -2.041588 -20.007561 0.000000 
			CHANNELS 3 Xrotation Zrotation Yrotation
			JOINT lFoot
			{
				OFFSET 0.000000 -19.190928 -1.224953 
				CHANNELS 3 Xrotation Yrotation Zrotation
				End Site
				{
					OFFSET 0.000000 -2.449906 4.627600 
				}
			}
		}
	}
	JOINT rThigh
	{
		OFFSET -5.308129 -1.633274 1.361059 
		CHANNELS 3 Xrotation Zrotation Yrotation
		JOINT rShin
		{
			OFFSET 2.041588 -20.007561 0.000000 
			CHANNELS 3 Xrotation Zrotation Yrotation
			JOINT rFoot
			{
				OFFSET 0.000000 -19.190928 -1.224953 
				CHANNELS 3 Xrotation Yrotation Zrotation
				End Site
				{
					OFFSET 0.000000 -2.449906 4.627600 
				}
			}
		}
	}
}
MOTION
Frames: 13
Frame Time: 0.016667
0.130100 43.324650 2.226767 4.943580 6.460460 1.173690 -19.011900 2.011730 -4.089730 19.391500 4.110480 -1.704410 51.687565 5.192603 -8.833992 -8.603520 0.000000 0.000000 2.000000 -2.000000 0.000000 -92.365601 -4.508430 160.546997 28.848000 -0.334599 0.066023 5.569340 -0.153852 -148.296005 -2.000000 2.000000 0.000000 79.419899 -0.611947 166.209000 -26.094000 0.337629 0.060142 6.318130 2.142160 -133.712006 1.681758 -9.807090 7.940849 19.631788 3.064947 1.496128 -7.311110 18.660042 3.480823 -19.844816 0.570276 21.499432 22.295038 -2.636864 -1.797289 -10.406356 -27.739029 -5.741231 
-0.474518 43.373329 3.225488 4.719860 6.705910 -0.569878 -19.149599 2.037850 -4.076180 19.352600 3.963970 -1.684610 51.874454 5.079473 -8.686208 -8.603520 0.000000 0.000000 2.000000 -2.000000 0.000000 -92.091301 -4.168820 159.570007 28.437799 -0.335068 0.065165 5.576710 -0.096145 -148.873001 -2.000000 2.000000 0.000000 79.293198 -0.085556 166.621002 -26.894800 0.336777 0.061852 6.340040 2.070930 -133.089005 0.485805 -8.948744 10.060023 24.006844 3.040246 1.799688 -4.059519 18.024736 2.457762 -19.031256 1.166731 21.080109 22.606695 -2.594300 -1.842692 -10.412667 -25.896374 -5.287281 
-1.139919 43.377876 4.237172 4.310910 7.147900 -2.928700 -19.269800 2.016590 -3.910920 19.333000 4.003000 -1.608670 52.169460 4.006354 -8.750802 -8.603520 0.000000 0.000000 2.000000 -2.000000 0.000000 -91.679604 -3.918890 157.781006 27.373301 -0.336256 0.062920 5.571620 -0.104481 -148.834000 -2.000000 2.000000 0.000000 79.401398 0.311354 168.115997 -28.291300 0.335234 0.064806 6.285350 2.228020 -134.511002 -0.819297 -8.045249 12.410327 28.879805 2.912438 2.117721 -0.824503 17.522963 1.593068 -18.285257 1.676824 20.799076 23.334656 -2.598674 -1.870809 -10.685173 -23.380310 -4.688286 
-1.774158 43.348412 5.210672 3.799140 7.152380 -5.150110 -19.415300 1.900940 -3.858320 19.176901 3.612240 -1.600440 52.264523 3.668752 -8.488727 -8.603520 0.000000 0.000000 2.000000 -2.000000 0.000000 -91.238800 -3.482340 156.462006 25.537399 -0.338208 0.058998 5.557320 -0.376953 -145.942001 -2.000000 2.000000 0.000000 79.626404 0.543536 169.054001 -29.931999 0.333329 0.068226 6.266500 2.291010 -135.056000 -2.701809 -6.501511 13.943733 34.618423 2.731622 2.499970 3.129381 17.578365 0.533177 -17.363483 2.275190 19.364529 23.712124 -2.579537 -1.919620 -10.449459 -20.279593 -3.806499 
-2.420877 43.259621 6.128723 3.195350 6.649890 -7.685330 -19.416100 1.890410 -3.802870 19.050501 3.143450 -1.576630 51.600277 3.760653 -8.454889 -8.603520 0.000000 0.000000 2.000000 -2.000000 0.000000 -90.767601 -3.331520 153.951996 23.994400 -0.339750 0.055656 5.550460 -0.528595 -144.300995 -2.000000 2.000000 0.000000 79.871201 1.077270 170.490997 -31.611700 0.331279 0.071669 6.203990 2.452190 -136.447998 -4.827911 -4.365900 15.028591 41.173145 2.477951 2.906308 7.443728 18.022802 -0.765017 -16.254404 3.321432 17.928558 23.978945 -2.577708 -1.953689 -10.336007 -17.052658 -2.909702 
-3.025156 43.169918 6.996715 2.525270 6.351300 -10.403600 -19.486200 1.862380 -3.682990 18.777100 2.869710 -1.524560 50.762356 2.933986 -8.775775 -8.603520 0.000000 0.000000 2.000000 -2.000000 0.000000 -90.608498 -3.141660 151.382996 22.539301 -0.341121 0.052466 5.525560 -0.695680 -142.550995 -2.000000 2.000000 0.000000 79.930000 1.661870 171.059006 -32.890999 0.329650 0.074251 6.206980 2.462840 -136.535995 -6.963905 -2.948936 14.857232 47.072529 2.170929 3.236249 12.001286 18.348587 -2.171335 -15.151753 4.144967 17.475599 24.547886 -2.593100 -1.976515 -11.060651 -14.299054 -2.307112 
-3.613786 43.056198 7.823356 1.737740 5.905510 -13.834800 -19.385500 1.898780 -3.307230 18.650299 2.645020 -1.347680 51.133476 2.460946 -8.315050 -8.603520 0.000000 0.000000 2.000000 -2.000000 0.000000 -90.293602 -3.116450 149.410995 21.132999 -0.342369 0.049352 5.522210 -0.785579 -141.505005 -2.000000 2.000000 0.000000 80.018303 2.538870 171.871002 -33.848000 0.328394 0.076158 6.191230 2.486210 -136.759995 -8.832972 -1.855143 14.206376 51.966187 1.863343 3.501364 11.841593 16.641304 -1.824957 -13.862526 5.133367 17.643324 24.948532 -2.614769 -1.984069 -11.620901 -11.204648 -1.459833 
-4.124261 42.937813 8.622699 1.244860 4.940250 -17.704800 -19.374500 2.098200 -2.941650 18.416300 2.254290 -1.148620 52.077652 2.195981 -8.047099 -8.603520 0.000000 0.000000 2.000000 -2.000000 0.000000 -90.408600 -2.729440 147.632004 20.332300 -0.343046 0.047565 5.504790 -0.893509 -140.341995 -2.000000 2.000000 0.000000 -100.050003 176.632996 -7.374800 -34.541401 0.327464 0.077527 6.210740 2.441540 -136.360992 -10.718451 -0.728145 13.141973 55.480415 1.659614 3.669311 9.108796 12.574067 -0.547803 -12.706594 6.531844 18.178072 25.437763 -2.641785 -2.010860 -12.234152 -8.212786 -0.566057 
-4.630132 42.819691 9.419132 0.931032 4.823590 -22.255100 -19.341801 2.117980 -2.388140 18.631500 2.117950 -0.871906 52.301334 1.663594 -8.104164 -8.603520 0.000000 0.000000 2.000000 -2.000000 0.000000 -90.602097 -2.204800 146.283005 19.931900 -0.343375 0.046668 5.494910 -0.946308 -139.794006 -2.000000 2.000000 0.000000 -99.873596 175.472000 -6.961880 -34.883202 0.327000 0.078197 6.195400 2.495710 -136.817993 -12.755813 -0.743608 12.109665 57.170158 1.526361 3.760677 6.347121 10.653317 0.237535 -12.143823 7.106773 19.408728 26.312082 -2.654967 -2.058323 -12.728122 -5.096640 0.451488 
-5.071903 42.708183 10.202916 0.166608 4.833960 -26.870001 -19.197399 1.847210 -1.552440 18.700399 1.620240 -0.501700 52.362823 1.617165 -8.014074 -8.603520 0.000000 0.000000 2.000000 -2.000000 0.000000 -90.348900 -1.490760 146.858002 20.136900 -0.343207 0.047127 5.516070 -0.819791 -141.143005 -2.000000 2.000000 0.000000 -99.219200 174.563004 -7.076900 -35.039398 0.326786 0.078503 6.171810 2.543910 -137.296005 -14.244857 -1.463813 10.672696 57.575558 1.437150 3.797512 3.966778 9.510923 0.736439 -11.365186 7.238287 20.436369 27.486366 -2.711113 -2.110528 -13.300026 -2.016849 1.489188 
-5.495249 42.603294 10.977218 -0.362451 4.511630 -31.366301 -19.138500 1.645860 -1.004850 18.603100 1.132150 -0.263215 51.852177 1.172717 -8.281108 -8.603520 0.000000 0.000000 2.000000 -2.000000 0.000000 -90.349800 -0.600561 147.617996 20.635000 -0.342793 0.048241 5.517140 -0.772109 -141.681000 -2.000000 2.000000 0.000000 -99.140701 174.076996 -6.118720 -35.439800 0.326235 0.079283 6.185090 2.509640 -136.983994 -15.990815 -1.952047 8.594723 57.390732 1.422443 3.805588 0.946426 8.972630 1.242961 -10.601531 7.578547 21.366570 28.473967 -2.765949 -2.156700 -13.784242 0.749722 2.516377 
-5.930536 42.501392 11.677602 -0.930325 4.276780 -36.104401 -19.050501 1.590640 -0.734866 18.456499 1.239400 -0.152857 50.862549 1.106750 -7.360382 -8.603520 0.000000 0.000000 2.000000 -2.000000 0.000000 -90.594200 0.141979 147.792999 21.084200 -0.342411 0.049243 5.530610 -0.709198 -142.335999 -2.000000 2.000000 0.000000 -99.433098 173.427002 -4.260580 -35.781601 0.325760 0.079946 6.125560 2.656030 -138.259003 -17.640419 -2.522696 6.361555 56.009052 1.478134 3.764050 -1.807977 9.129904 1.744684 -10.025182 7.736220 22.513893 29.806355 -2.806175 -2.205209 -13.935219 3.763523 3.577474 
-6.312778 42.479713 12.407800 -2.292750 4.664250 -41.562901 -18.861601 1.246130 -0.012981 18.222000 1.356300 0.120506 50.369873 1.316977 -6.495307 -8.603520 0.000000 0.000000 2.000000 -2.000000 0.000000 -90.477501 0.572436 148.173004 21.142799 -0.342361 0.049373 5.536770 -0.630854 -143.177002 -2.000000 2.000000 0.000000 -99.374100 172.716995 -3.077140 -35.820702 0.325706 0.080022 6.116880 2.668180 -138.376007 -18.438206 -4.188067 4.743865 53.193092 1.617473 3.621181 -4.315096 10.401094 2.343710 -9.390104 6.625365 24.039326 31.242382 -2.885515 -2.243437 -14.286769 7.156525 4.736115 
